<svg width="2533" height="597" viewBox="0 0 2533 597" fill="none" xmlns="http://www.w3.org/2000/svg">
<path d="M671 394.148V233.856H715.295V261.899H717.207C725.812 243.735 742.382 230.669 769.788 230.669C797.194 230.669 813.765 243.098 821.732 261.899H823.325C832.248 244.372 848.181 230.669 877.818 230.669C919.245 230.669 936.135 258.394 936.135 292.492V394.148H888.334V302.052C888.334 279.745 881.642 271.778 858.379 271.778C836.709 271.778 827.468 278.789 827.468 302.052V394.148H779.667V302.052C779.667 279.745 772.656 271.778 749.712 271.778C728.042 271.778 718.482 278.789 718.482 301.415V394.148H671Z" fill="white"/>
<path d="M992.859 314.48C992.859 263.174 1023.13 230.669 1076.67 230.669C1119.37 230.669 1150.6 256.8 1150.6 296.316V300.14H1102.8V297.59C1102.8 279.426 1092.6 273.371 1072.85 273.371C1049.9 273.371 1040.02 284.206 1040.02 314.161C1040.02 343.798 1049.9 354.633 1072.85 354.633C1092.6 354.633 1102.8 348.578 1102.8 330.414V327.864H1150.6V331.688C1150.6 371.204 1118.42 397.335 1074.12 397.335C1021.22 397.335 992.859 365.149 992.859 314.48Z" fill="white"/>
<path d="M1215.93 394.147V273.37H1192.67V233.855H1216.25C1219.12 200.076 1241.74 180 1284.44 180C1289.54 180 1294.32 180 1299.42 180.637V216.328H1279.66C1267.55 216.328 1261.82 220.152 1261.82 230.987V233.855H1299.42V273.37H1263.73V394.147H1215.93Z" fill="white"/>
<path d="M1337.34 394.147V337.742H1397.25V394.147H1337.34Z" fill="white"/>
<path d="M1448.24 314.16C1448.24 263.491 1474.05 230.668 1517.71 230.668C1542.25 230.668 1556.91 241.503 1564.24 254.887H1566.15V180.637H1613.63V394.147H1569.34V370.565H1567.74C1559.46 387.773 1541.29 397.333 1517.71 397.333C1472.46 397.333 1448.24 364.51 1448.24 314.16ZM1531.1 356.544C1553.72 356.544 1566.15 348.577 1566.15 326.907V301.095C1566.15 279.425 1553.72 271.458 1531.1 271.458C1503.37 271.458 1495.72 284.842 1495.72 314.16C1495.72 343.159 1503.37 356.544 1531.1 356.544Z" fill="white"/>
<path d="M1676.09 215.691L1675.45 180.637H1722.94V215.691H1676.09ZM1676.09 394.147V233.855H1723.89V394.147H1676.09Z" fill="white"/>
<path d="M1778.07 304.283C1778.07 259.668 1802.29 230.669 1847.86 230.669C1870.8 230.669 1888.96 239.592 1897.57 257.119H1899.16V233.856H1943.46V376.302C1943.46 428.565 1915.73 451.509 1864.11 451.509C1814.08 451.509 1786.03 429.52 1786.03 388.73H1833.52C1833.52 405.301 1838.3 409.444 1865.7 409.444C1890.88 409.444 1895.97 403.708 1895.97 378.852V353.995H1894.06C1887.05 366.424 1870.16 377.258 1845.94 377.258C1801.65 377.258 1778.07 348.897 1778.07 304.283ZM1860.6 337.424C1883.55 337.424 1895.97 329.458 1895.97 309.063V299.502C1895.97 279.107 1883.87 271.141 1860.92 271.141C1833.52 271.141 1825.55 281.657 1825.55 304.283C1825.55 326.908 1833.52 337.424 1860.6 337.424Z" fill="white"/>
<path d="M2005.92 215.691L2005.28 180.637H2052.76V215.691H2005.92ZM2005.92 394.147V233.855H2053.72V394.147H2005.92Z" fill="white"/>
<path d="M2126.69 341.566V273.371H2101.2V233.855H2127.97L2136.89 196.571H2174.49V233.855H2219.74V273.371H2174.49V336.149C2174.49 350.171 2179.27 351.764 2199.99 351.764H2219.74V391.598C2212.1 393.191 2199.67 394.785 2188.51 394.785C2146.77 394.785 2126.69 379.488 2126.69 341.566Z" fill="white"/>
<path d="M2271.05 353.358C2271.05 328.502 2288.89 313.205 2322.04 308.107L2376.85 299.821V294.722C2376.85 275.921 2366.65 272.415 2347.85 272.415C2328.41 272.415 2320.76 277.833 2320.76 294.085V297.59H2275.19V294.085C2275.19 255.844 2304.83 230.669 2350.08 230.669C2397.24 230.669 2422.1 256.482 2422.1 299.184V394.148H2377.8V372.478H2375.89C2367.29 384.269 2351.04 397.335 2321.4 397.335C2293.04 397.335 2271.05 382.357 2271.05 353.358ZM2337.33 361.006C2356.77 361.006 2376.85 355.907 2376.85 331.051L2330.96 338.062C2321.08 339.655 2316.62 342.842 2316.62 349.534C2316.62 358.138 2323.31 361.006 2337.33 361.006Z" fill="white"/>
<path d="M2485.52 394.147V180.637H2533V394.147H2485.52Z" fill="white"/>
<path d="M595.3 507.9C595.3 557.1 555.4 596.9 506.3 596.9C457.1 596.9 417.3 557 417.3 507.9C417.3 484.4 426.4 463 441.4 447L444.4 450.5C447.2 453.8 447.8 458.4 446.1 462.3L444.2 466.6C442.7 469.8 445.6 473.4 449.1 472.6C454.1 471.5 460.8 469 467.2 463.6C473.5 458.2 477.1 452 479 447.2C480.3 443.9 477.3 440.5 473.9 441.4L469.3 442.6C465.1 443.7 460.7 442.3 458 439L454.8 435.2C469.4 424.8 487.2 418.7 506.5 418.7C555.4 418.8 595.3 458.7 595.3 507.9Z" fill="white"/>
<path d="M177.8 321.7C174.7 368 136.1 404.6 89 404.6C39.8 404.6 0 364.7 0 315.6C0 266.4 39.9 226.6 89 226.6C134.3 226.6 171.6 260.4 177.3 304.1C173.3 303.8 169.8 301.4 168 297.8L165.9 293.5C164.3 290.3 159.8 290.2 158.2 293.4C155.8 298 153.4 304.7 153.4 313C153.4 321.3 155.9 328 158.3 332.6C160 335.8 164.5 335.6 166 332.4L168 328.1C169.9 324.3 173.6 321.8 177.8 321.7Z" fill="white"/>
<path d="M325.9 522.2C325.9 559.6 295.6 589.9 258.2 589.9C220.8 589.9 190.5 559.6 190.5 522.2C190.5 484.8 220.8 454.5 258.2 454.5C265.6 454.5 272.6 455.7 279.3 457.8C277.8 460.1 275.3 461.5 272.5 461.6H269C266.4 461.6 264.9 464.6 266.5 466.7C268.8 469.7 272.6 473.4 278.1 476C283.6 478.6 288.9 479 292.7 478.8C295.3 478.7 296.6 475.6 295 473.6L292.8 470.9C291 468.7 290.4 465.7 291.3 463.1C311.9 474.7 325.9 496.8 325.9 522.2Z" fill="white"/>
<path d="M316.4 426.9L312.9 427C309.7 427 306.9 428.9 305.5 431.8L303 437.2C298.8 436.1 294.7 434.8 290.5 433.2L293.7 426.3C295 423.4 294.6 420 292.6 417.6L290.4 414.9C288.7 412.9 290.1 409.8 292.7 409.7C296.5 409.5 301.7 409.9 307.3 412.5C312.9 415 316.6 418.8 318.9 421.8C320.5 423.9 319.1 426.9 316.4 426.9Z" fill="white"/>
<path d="M358.2 331.7C363.2 337.3 361.4 348.2 352.2 350.6C349.7 351.3 347.2 351.6 344.6 351.5C338.5 351.4 332.5 350.1 326.6 348.7C325.2 348.4 323.8 347.9 322.5 347.7C321.7 347.5 321.5 347.2 321.7 346.4C323.6 339 325.4 331.6 327.3 324.1C327.6 322.8 327.9 321.5 328.3 320.2C328.4 319.8 328.4 319.4 329.1 319.6C336 321.2 342.9 322.7 349.4 325.6C352.7 327 355.7 328.9 358.2 331.7Z" fill="white"/>
<path d="M361.4 290.4C367.4 295.9 365.3 306.9 356.7 309.2C354.5 309.8 352.3 309.9 350.7 310C344 309.8 338.1 308.3 332.2 306.7C331.4 306.5 331.7 306 331.8 305.6C332.7 301.8 333.7 298 334.7 294.1C335.6 290.4 336.6 286.7 337.5 282.9C337.9 281.2 337.9 281.2 339.6 281.6C344.4 282.6 349.1 283.7 353.7 285.6C356.5 286.9 359.1 288.3 361.4 290.4Z" fill="white"/>
<path d="M390.5 209.8C390.6 212.2 391.5 214.5 393.1 216.4L396.1 220C398.4 222.7 396.6 226.9 393 227.1C387.8 227.3 380.7 226.8 373.2 223.3C365.7 219.8 360.6 214.8 357.4 210.7C355.2 207.9 357.2 203.8 360.8 203.7L365.5 203.6C367.7 203.6 369.8 202.9 371.6 201.7C313.4 182.8 248.9 210.1 222.6 267.1C217.1 279 213.7 291.3 212.2 303.7L223.6 303.6C227.9 303.6 231.8 301.1 233.7 297.2L235.7 292.9C237.2 289.7 241.8 289.6 243.4 292.7C245.8 297.3 248.3 304 248.3 312.3C248.3 320.6 245.9 327.3 243.5 331.9C241.9 335.1 237.3 335 235.8 331.8L233.7 327.5C231.8 323.6 227.9 321.2 223.6 321.2L211.2 321.3C212.3 366.6 238.6 409.4 282.5 429.7C285.1 430.9 287.8 432 290.5 433C294.6 434.6 298.8 435.9 303 437C341.4 447 381.8 437.5 411.6 413.1C409.1 411.7 406.1 411.3 403.3 412L398.7 413.2C395.3 414.1 392.3 410.7 393.6 407.4C395.5 402.6 399.1 396.4 405.4 391C411.7 385.6 418.4 383.2 423.5 382C427 381.2 429.8 384.7 428.4 388L426.5 392.3C425.5 394.6 425.3 397 425.8 399.4C433.5 390.7 440.1 380.7 445.2 369.5C472.8 310.1 448.2 239.8 390.5 209.8ZM379 323.9C385.5 329 388 335.7 386.8 343.7C385.9 349.6 383.9 355.2 380.2 360C376.2 365.3 370.8 368.1 364.4 369.3C358.1 370.4 351.8 369.9 345.6 369C344.1 368.8 342.7 368.6 341.3 368.3C340.5 368.1 340.2 368.4 340.1 369.1C338.6 375.3 337 381.5 335.5 387.7C335.1 389.2 335.1 389.2 333.6 388.8C330.2 388 326.8 387.1 323.4 386.3C322.6 386.1 322.3 385.9 322.6 385C324.2 378.9 325.7 372.7 327.3 366.6C327.6 365.6 327.4 365.2 326.3 364.9C323.7 364.3 321.2 363.6 318.7 362.9C317.9 362.7 317.4 362.7 317.2 363.8C315.7 370.1 314.1 376.3 312.5 382.6C312.3 383.4 312 383.5 311.3 383.3C307.8 382.4 304.2 381.5 300.7 380.7C299.7 380.5 299.7 380.1 299.9 379.3C301.5 373 303.1 366.6 304.7 360.3C304.9 359.5 304.8 359.3 304 359.1C296.1 357.2 288.3 355.2 280.4 353.2C279.6 353 279.4 352.7 279.8 351.9C281.7 347.7 283.5 343.4 285.3 339.2C285.6 338.5 285.9 338.4 286.6 338.6C289.3 339.3 292 340 294.7 340.6C298.2 341.4 300.2 340 301 336.6C303.7 325.8 306.4 315.1 309.1 304.3C311 296.7 312.9 289 314.8 281.4C315.7 277.9 313.7 274.7 310 273.5C307 272.5 303.8 271.9 300.7 271.1C300 270.9 299.8 270.8 300 270C301 266.2 301.9 262.3 302.9 258.4C303.1 257.6 303.4 257.3 304.3 257.6C311.1 259.3 317.8 261 324.6 262.7C325.7 263 326.7 263.2 327.8 263.5C328.6 263.7 328.9 263.6 329.1 262.7C330.6 256.4 332.2 250.2 333.8 243.9C334 242.9 334.4 242.9 335.2 243.1C338.7 244 342.3 244.9 345.8 245.7C346.6 245.9 346.7 246.2 346.5 247C344.9 253.2 343.4 259.3 341.9 265.5C341.7 266.2 341.8 266.5 342.6 266.6C345.4 267.2 348.3 267.9 351.1 268.6C352.1 268.8 352 268.2 352.1 267.7C353.5 262.2 354.9 256.7 356.2 251.1C356.9 248.4 356.8 248.4 359.5 249.1C362.5 249.9 365.5 250.6 368.5 251.3C369.3 251.5 369.6 251.7 369.3 252.6C367.7 258.7 366.3 264.9 364.7 271C364.4 272.1 364.6 272.5 365.7 272.9C371 274.7 376.2 277 380.7 280.5C385 283.7 388.5 287.7 389.5 293.1C391.1 302 389.3 310 382.2 316.2C379.8 318.3 377 319.4 373.7 320.2C375.5 321.4 377.3 322.5 379 323.9Z" fill="white"/>
<path d="M522.2 88.7C522.2 137.7 482.5 177.3 433.6 177.3C424 177.3 414.8 175.8 406.2 173L410.7 163.2C412.5 159.3 416.4 156.8 420.7 156.7L425.4 156.6C429 156.6 431 152.5 428.8 149.6C425.6 145.5 420.6 140.5 413 137C405.5 133.5 398.3 133 393.2 133.2C389.6 133.4 387.8 137.5 390.1 140.3L393.1 143.9C395.9 147.2 396.5 151.8 394.7 155.7L390.1 165.8C363.2 150.6 345.1 121.7 345.1 88.6C345.1 39.6 384.8 0 433.7 0C482.5 0.1 522.2 39.8 522.2 88.7Z" fill="white"/>
</svg>
