<svg width="32" height="32" viewBox="0 0 32 32" fill="none" xmlns="http://www.w3.org/2000/svg">
<path d="M27.2158 32C29.858 32 31.9999 29.8635 31.9999 27.2279C31.9999 24.5924 29.858 22.4558 27.2158 22.4558C24.5736 22.4558 22.4316 24.5924 22.4316 27.2279C22.4316 29.8635 24.5736 32 27.2158 32Z" fill="url(#paint0_radial_41_400)"/>
<path d="M4.78414 21.6836C7.42635 21.6836 9.56829 19.5471 9.56829 16.9115C9.56829 14.276 7.42635 12.1394 4.78414 12.1394C2.14193 12.1394 0 14.276 0 16.9115C0 19.5471 2.14193 21.6836 4.78414 21.6836Z" fill="url(#paint1_radial_41_400)"/>
<path d="M8.4827 18.5093C8.09566 18.4986 7.80002 17.6782 7.82689 16.6755C7.85377 15.6728 8.18705 14.8685 8.57945 14.8793C8.96649 14.89 9.26213 15.7104 9.23526 16.713C9.203 17.7157 8.86973 18.52 8.4827 18.5093Z" fill="url(#paint2_radial_41_400)"/>
<path d="M23.3885 25.6194C23.1627 25.303 23.6465 24.5791 24.4689 24.0001C25.2914 23.421 26.1353 23.2065 26.3611 23.5228C26.5869 23.8392 26.1031 24.5631 25.2806 25.1422C24.4582 25.7212 23.6089 25.9357 23.3885 25.6194Z" fill="url(#paint3_radial_41_400)"/>
<path d="M13.8794 31.6246C15.8893 31.6246 17.5186 29.9993 17.5186 27.9945C17.5186 25.9897 15.8893 24.3645 13.8794 24.3645C11.8695 24.3645 10.2402 25.9897 10.2402 27.9945C10.2402 29.9993 11.8695 31.6246 13.8794 31.6246Z" fill="url(#paint4_radial_41_400)"/>
<path d="M16.0837 25.7963C15.9601 26.059 15.4279 26.0751 14.885 25.8231C14.3475 25.5765 14.0088 25.1636 14.1271 24.8955C14.2507 24.6328 14.7829 24.6167 15.3258 24.8687C15.8687 25.1153 16.2074 25.5282 16.0837 25.7963Z" fill="url(#paint5_radial_41_400)"/>
<path d="M15.0404 24.488C14.9705 24.6435 14.8146 24.7401 14.648 24.7454H14.4598C14.3201 24.7454 14.2395 24.9063 14.3255 25.0189C14.4491 25.1797 14.6534 25.3781 14.949 25.5175C15.2447 25.6569 15.5296 25.6784 15.7338 25.6677C15.8736 25.6623 15.9488 25.4961 15.8575 25.3888L15.7392 25.2441C15.6317 25.1154 15.6048 24.9331 15.6801 24.7776L16.4326 23.1422C16.5025 22.9867 16.6584 22.8902 16.825 22.8848L17.0132 22.8795C17.1529 22.8795 17.2336 22.7186 17.1476 22.606C17.0239 22.4451 16.8197 22.2468 16.524 22.1073C16.2284 21.9679 15.9435 21.9465 15.7392 21.9572C15.5994 21.9626 15.5242 22.1288 15.6156 22.236L15.7338 22.3808C15.8413 22.5095 15.8682 22.6918 15.793 22.8473L15.0404 24.488Z" fill="url(#paint6_linear_41_400)"/>
<path d="M23.9371 19.823C22.4159 23.1206 18.5026 24.563 15.1967 23.0455C11.8961 21.5228 10.4501 17.6193 11.9714 14.3217C13.4926 11.0241 17.406 9.58173 20.7119 11.0992C24.0178 12.6219 25.4638 16.5254 23.9371 19.823Z" fill="url(#paint7_radial_41_400)"/>
<path d="M20.3779 17.3566C20.2865 17.2869 20.1844 17.2279 20.0715 17.1582C20.2489 17.1153 20.4047 17.051 20.5284 16.9437C20.91 16.6113 21.0068 16.1823 20.9208 15.7051C20.867 15.4156 20.6789 15.2065 20.4478 15.0295C20.2005 14.8472 19.9263 14.7239 19.6414 14.622C19.5823 14.6006 19.5716 14.5791 19.5877 14.5201C19.6737 14.1931 19.7543 13.8606 19.8349 13.5335C19.8457 13.4853 19.835 13.4746 19.7919 13.4638C19.6307 13.4263 19.4694 13.3834 19.3082 13.3459C19.163 13.3083 19.163 13.3083 19.1308 13.4531C19.0555 13.748 18.9856 14.0483 18.9104 14.3432C18.905 14.37 18.905 14.4022 18.8566 14.3915C18.7061 14.3539 18.5502 14.3164 18.3997 14.2842C18.3621 14.2735 18.3567 14.2628 18.3621 14.2252C18.4481 13.8928 18.5287 13.5657 18.6093 13.2333C18.6201 13.1904 18.6147 13.1743 18.5717 13.1636C18.3836 13.1207 18.1901 13.0724 18.0019 13.0242C17.9589 13.0134 17.9374 13.0134 17.9267 13.0671C17.846 13.4049 17.76 13.7373 17.6794 14.0751C17.6686 14.1234 17.6471 14.1287 17.6095 14.118C17.5558 14.1019 17.4966 14.0912 17.4375 14.0751C17.072 13.9839 16.7118 13.8928 16.3463 13.8016C16.2979 13.7909 16.2818 13.8016 16.271 13.8445C16.2227 14.0536 16.1689 14.2574 16.1151 14.4665C16.1044 14.5094 16.1151 14.5148 16.1528 14.5255C16.3194 14.563 16.4861 14.6006 16.6527 14.6542C16.8516 14.7185 16.9537 14.8901 16.9107 15.0778C16.8086 15.4853 16.7064 15.8982 16.6043 16.3057C16.4592 16.8848 16.314 17.4585 16.1689 18.0376C16.1205 18.2199 16.013 18.2896 15.8302 18.252C15.6851 18.2199 15.54 18.1823 15.3948 18.1448C15.3572 18.1341 15.3411 18.1394 15.325 18.177C15.2282 18.4022 15.1314 18.6327 15.0293 18.8579C15.0078 18.9008 15.0186 18.9169 15.0616 18.9276C15.4862 19.0349 15.9055 19.1368 16.3302 19.244C16.3732 19.2547 16.3785 19.2708 16.3678 19.3083C16.2818 19.6461 16.1958 19.9893 16.1098 20.3271C16.099 20.37 16.099 20.3915 16.1528 20.4022C16.3463 20.4451 16.5344 20.4933 16.7226 20.5416C16.7602 20.5523 16.7763 20.5469 16.7871 20.5041C16.8677 20.1663 16.9537 19.8338 17.0343 19.496C17.0505 19.4424 17.072 19.437 17.115 19.4478C17.2494 19.4853 17.3891 19.5228 17.5235 19.555C17.5773 19.5657 17.5934 19.5872 17.5773 19.6408C17.4913 19.9679 17.4106 20.3003 17.3246 20.6274C17.3139 20.6756 17.33 20.6864 17.373 20.6971C17.5558 20.74 17.7385 20.7882 17.9213 20.8311C18.0019 20.8526 18.0019 20.8526 18.0234 20.7722C18.1041 20.4397 18.1901 20.1073 18.2707 19.7748C18.2814 19.7319 18.2976 19.7212 18.3352 19.7319C18.4105 19.748 18.4911 19.7587 18.5663 19.7695C18.905 19.8177 19.2437 19.8445 19.5823 19.7856C19.9263 19.7266 20.222 19.5711 20.4316 19.2869C20.6251 19.0295 20.738 18.7293 20.7864 18.4129C20.8563 17.9893 20.7219 17.6301 20.3779 17.3566ZM18.9319 18.7936C18.7975 18.8311 18.6631 18.8472 18.5233 18.8419C18.1954 18.8365 17.8729 18.7668 17.5558 18.6864C17.4805 18.6703 17.4052 18.6435 17.3354 18.6274C17.2924 18.6167 17.2816 18.6006 17.2924 18.5577C17.3945 18.1609 17.4913 17.7641 17.5934 17.362C17.6095 17.2923 17.631 17.2226 17.6471 17.1528C17.6525 17.1314 17.6525 17.11 17.6901 17.1207C18.0611 17.2065 18.4373 17.2869 18.7867 17.4424C18.9641 17.5228 19.1254 17.6247 19.2598 17.7748C19.5286 18.0805 19.4264 18.6596 18.9319 18.7936ZM19.1791 16.5791C19.0609 16.6113 18.9426 16.6167 18.8566 16.622C18.4965 16.6113 18.1793 16.5309 17.8622 16.4451C17.8192 16.4343 17.8353 16.4075 17.8407 16.3861C17.889 16.1823 17.9428 15.9786 17.9966 15.7695C18.0449 15.5711 18.0987 15.3727 18.1471 15.1689C18.1686 15.0778 18.1686 15.0778 18.2599 15.0992C18.518 15.1528 18.7706 15.2118 19.0125 15.3137C19.163 15.378 19.3028 15.4585 19.4264 15.5657C19.7543 15.866 19.6361 16.4558 19.1791 16.5791Z" fill="#FEFEFE"/>
<path d="M12.9709 15.3406C13.3902 15.3406 13.7288 16.0001 13.7342 16.8205C13.7396 17.6408 13.4009 18.3057 12.987 18.3111C12.5677 18.3111 12.2291 17.6516 12.2237 16.8312C12.2183 16.0055 12.5516 15.3406 12.9709 15.3406Z" fill="url(#paint8_radial_41_400)"/>
<path d="M23.1198 20.2681C23.3939 20.5791 23.1198 21.2708 22.5016 21.8177C21.8834 22.3593 21.1631 22.5469 20.8836 22.2359C20.6094 21.9249 20.8836 21.2333 21.5018 20.6863C22.1199 20.1448 22.8403 19.9571 23.1198 20.2681Z" fill="url(#paint9_radial_41_400)"/>
<path d="M21.443 12.3539C21.2549 12.7238 20.5077 12.7238 19.7713 12.3485C19.0402 11.9732 18.5994 11.3726 18.7876 11.0026C18.9757 10.6327 19.7229 10.6327 20.4593 11.008C21.1904 11.378 21.6312 11.9839 21.443 12.3539Z" fill="url(#paint10_radial_41_400)"/>
<path d="M23.3076 9.50134C25.9379 9.50134 28.0702 7.37439 28.0702 4.75067C28.0702 2.12695 25.9379 0 23.3076 0C20.6772 0 18.5449 2.12695 18.5449 4.75067C18.5449 7.37439 20.6772 9.50134 23.3076 9.50134Z" fill="url(#paint11_radial_41_400)"/>
<path d="M12.0306 17.2279C12.2617 17.2279 12.4713 17.3566 12.5735 17.5657L12.6864 17.7963C12.7724 17.9679 13.0143 17.9732 13.1003 17.8016C13.2293 17.555 13.3583 17.1957 13.3529 16.7507C13.3529 16.3057 13.2185 15.9464 13.0895 15.6998C12.9981 15.5335 12.7562 15.5389 12.6756 15.7105L12.5681 15.941C12.4713 16.1502 12.2617 16.2842 12.0306 16.2842L9.57936 16.2949C9.34821 16.2949 9.13857 16.1662 9.03644 15.9571L8.92355 15.7266C8.83755 15.555 8.59565 15.5496 8.50964 15.7212C8.38063 15.9679 8.25162 16.3271 8.257 16.7721C8.257 17.2172 8.39138 17.5764 8.52039 17.8231C8.61178 17.9893 8.85367 17.9839 8.9343 17.8124L9.04181 17.5818C9.13857 17.3727 9.34821 17.2386 9.57936 17.2386L12.0306 17.2279Z" fill="url(#paint12_linear_41_400)"/>
<path d="M22.2973 22.2897C22.1468 22.1128 21.9102 22.0377 21.6845 22.0967L21.4372 22.1611C21.2544 22.2093 21.0878 22.027 21.163 21.8501C21.2652 21.5927 21.4587 21.2602 21.7974 20.9707C22.136 20.6812 22.4962 20.5525 22.7703 20.4881C22.9584 20.4452 23.109 20.6329 23.0337 20.8098L22.9316 21.0404C22.8348 21.2495 22.8724 21.4962 23.023 21.6731L24.6087 23.5391C24.7592 23.716 24.9957 23.7911 25.2215 23.7321L25.4688 23.6678C25.6515 23.6195 25.8182 23.8018 25.7429 23.9787C25.6408 24.2361 25.4473 24.5686 25.1086 24.8581C24.77 25.1476 24.4098 25.2763 24.1357 25.3407C23.9475 25.3836 23.797 25.1959 23.8723 25.019L23.9744 24.7884C24.0712 24.5793 24.0335 24.3326 23.883 24.1557L22.2973 22.2897Z" fill="url(#paint13_linear_41_400)"/>
<path d="M23.7917 8.3163C23.6358 8.68091 22.7596 8.65946 21.8351 8.26268C20.9105 7.87126 20.2869 7.25463 20.4428 6.89002C20.5987 6.52541 21.4749 6.54686 22.3995 6.94364C23.3241 7.34042 23.9476 7.95168 23.7917 8.3163Z" fill="url(#paint14_radial_41_400)"/>
<path d="M20.1899 10.5681C20.0931 10.7772 19.8835 10.9113 19.6523 10.9166L19.3997 10.922C19.2062 10.9273 19.104 11.1418 19.2169 11.2973C19.3889 11.5171 19.6577 11.7852 20.0662 11.9729C20.4694 12.1606 20.8564 12.1928 21.1306 12.1767C21.3241 12.1659 21.4208 11.9461 21.2972 11.796L21.1359 11.6029C20.9908 11.426 20.9532 11.1793 21.0499 10.9702L22.0766 8.75039C22.1734 8.54127 22.383 8.40723 22.6142 8.40186L22.8668 8.3965C23.0603 8.39114 23.1625 8.17666 23.0496 8.02117C22.8776 7.80133 22.6088 7.53323 22.2003 7.34556C21.7971 7.1579 21.4101 7.12572 21.1359 7.14181C20.9424 7.15253 20.8457 7.37237 20.9693 7.52251L21.1306 7.71554C21.2757 7.89248 21.3133 8.13913 21.2166 8.34825L20.1899 10.5681Z" fill="url(#paint15_linear_41_400)"/>
<defs>
<radialGradient id="paint0_radial_41_400" cx="0" cy="0" r="1" gradientUnits="userSpaceOnUse" gradientTransform="translate(25.4627 25.9769) scale(10.6061 10.5795)">
<stop offset="0.0722571" stop-color="#54A8F2"/>
<stop offset="0.1475" stop-color="#3F91E0"/>
<stop offset="0.2445" stop-color="#2B7BCF"/>
<stop offset="0.3506" stop-color="#1D6BC3"/>
<stop offset="0.4713" stop-color="#1562BB"/>
<stop offset="0.6389" stop-color="#125FB9"/>
</radialGradient>
<radialGradient id="paint1_radial_41_400" cx="0" cy="0" r="1" gradientUnits="userSpaceOnUse" gradientTransform="translate(3.03188 15.6624) scale(10.6061 10.5795)">
<stop offset="0.0722571" stop-color="#54A8F2"/>
<stop offset="0.1475" stop-color="#3F91E0"/>
<stop offset="0.2445" stop-color="#2B7BCF"/>
<stop offset="0.3506" stop-color="#1D6BC3"/>
<stop offset="0.4713" stop-color="#1562BB"/>
<stop offset="0.6389" stop-color="#125FB9"/>
</radialGradient>
<radialGradient id="paint2_radial_41_400" cx="0" cy="0" r="1" gradientTransform="matrix(-0.0483927 1.81067 -0.698805 -0.0185442 8.52864 16.6924)" gradientUnits="userSpaceOnUse">
<stop offset="0.5618" stop-color="#4BA6F3"/>
<stop offset="0.6184" stop-color="#50A8F3" stop-opacity="0.8709"/>
<stop offset="0.6844" stop-color="#5EAFF4" stop-opacity="0.7204"/>
<stop offset="0.7551" stop-color="#75BBF6" stop-opacity="0.559"/>
<stop offset="0.8291" stop-color="#96CBF8" stop-opacity="0.39"/>
<stop offset="0.9058" stop-color="#C0E0FB" stop-opacity="0.2149"/>
<stop offset="0.9836" stop-color="#F3F9FE" stop-opacity="0.0375082"/>
<stop offset="1" stop-color="white" stop-opacity="0"/>
</radialGradient>
<radialGradient id="paint3_radial_41_400" cx="0" cy="0" r="1" gradientTransform="matrix(-1.48216 1.04642 -0.403921 -0.569147 24.8825 24.5644)" gradientUnits="userSpaceOnUse">
<stop offset="0.5618" stop-color="#4BA6F3"/>
<stop offset="0.6184" stop-color="#50A8F3" stop-opacity="0.8709"/>
<stop offset="0.6844" stop-color="#5EAFF4" stop-opacity="0.7204"/>
<stop offset="0.7551" stop-color="#75BBF6" stop-opacity="0.559"/>
<stop offset="0.8291" stop-color="#96CBF8" stop-opacity="0.39"/>
<stop offset="0.9058" stop-color="#C0E0FB" stop-opacity="0.2149"/>
<stop offset="0.9836" stop-color="#F3F9FE" stop-opacity="0.0375082"/>
<stop offset="1" stop-color="white" stop-opacity="0"/>
</radialGradient>
<radialGradient id="paint4_radial_41_400" cx="0" cy="0" r="1" gradientUnits="userSpaceOnUse" gradientTransform="translate(12.7505 26.4845) scale(7.56991 7.55088)">
<stop offset="0.0976105" stop-color="#54A8F2"/>
<stop offset="0.1695" stop-color="#3F91E0"/>
<stop offset="0.2621" stop-color="#2B7BCF"/>
<stop offset="0.3635" stop-color="#1D6BC3"/>
<stop offset="0.4788" stop-color="#1562BB"/>
<stop offset="0.6389" stop-color="#125FB9"/>
</radialGradient>
<radialGradient id="paint5_radial_41_400" cx="0" cy="0" r="1" gradientTransform="matrix(0.973679 0.447265 -0.219369 0.475322 15.1085 25.3435)" gradientUnits="userSpaceOnUse">
<stop offset="0.5618" stop-color="#4BA6F3"/>
<stop offset="0.6184" stop-color="#50A8F3" stop-opacity="0.8709"/>
<stop offset="0.6844" stop-color="#5EAFF4" stop-opacity="0.7204"/>
<stop offset="0.7551" stop-color="#75BBF6" stop-opacity="0.559"/>
<stop offset="0.8291" stop-color="#96CBF8" stop-opacity="0.39"/>
<stop offset="0.9058" stop-color="#C0E0FB" stop-opacity="0.2149"/>
<stop offset="0.9836" stop-color="#F3F9FE" stop-opacity="0.0375082"/>
<stop offset="1" stop-color="white" stop-opacity="0"/>
</radialGradient>
<linearGradient id="paint6_linear_41_400" x1="16.4869" y1="22.1915" x2="14.9422" y2="25.5541" gradientUnits="userSpaceOnUse">
<stop offset="0.6257" stop-color="#E0E0E0"/>
<stop offset="0.7871" stop-color="#DEDEDE"/>
<stop offset="0.8524" stop-color="#D7D8D8"/>
<stop offset="0.9002" stop-color="#CBCCCE"/>
<stop offset="0.9396" stop-color="#B9BCBF"/>
<stop offset="0.9734" stop-color="#A3A8AC"/>
<stop offset="1" stop-color="#8B9298"/>
</linearGradient>
<radialGradient id="paint7_radial_41_400" cx="0" cy="0" r="1" gradientUnits="userSpaceOnUse" gradientTransform="translate(18.0521 17.3721) scale(8.6736 8.65179)">
<stop offset="0.0497207" stop-color="#FFB92A"/>
<stop offset="0.2478" stop-color="#FFA12A"/>
<stop offset="0.4171" stop-color="#F59423"/>
<stop offset="0.7307" stop-color="#DA710F"/>
<stop offset="0.8754" stop-color="#CC5F05"/>
</radialGradient>
<radialGradient id="paint8_radial_41_400" cx="0" cy="0" r="1" gradientTransform="matrix(-0.0071313 -1.48226 0.751707 -0.00363175 12.976 16.8248)" gradientUnits="userSpaceOnUse">
<stop offset="0.5618" stop-color="#DC5705" stop-opacity="0.5"/>
<stop offset="0.6088" stop-color="#DD5A0A" stop-opacity="0.4464"/>
<stop offset="0.6636" stop-color="#DF6418" stop-opacity="0.3839"/>
<stop offset="0.7223" stop-color="#E27430" stop-opacity="0.3168"/>
<stop offset="0.7839" stop-color="#E78A50" stop-opacity="0.2466"/>
<stop offset="0.8476" stop-color="#ECA67B" stop-opacity="0.1739"/>
<stop offset="0.9131" stop-color="#F4C9AE" stop-opacity="0.0991081"/>
<stop offset="0.979" stop-color="#FCF1EA" stop-opacity="0.0240115"/>
<stop offset="1" stop-color="white" stop-opacity="0"/>
</radialGradient>
<radialGradient id="paint9_radial_41_400" cx="0" cy="0" r="1" gradientTransform="matrix(1.11518 -0.979715 0.496803 0.562673 21.9941 21.2478)" gradientUnits="userSpaceOnUse">
<stop offset="0.5618" stop-color="#DC5705" stop-opacity="0.5"/>
<stop offset="0.6088" stop-color="#DD5A0A" stop-opacity="0.4464"/>
<stop offset="0.6636" stop-color="#DF6418" stop-opacity="0.3839"/>
<stop offset="0.7223" stop-color="#E27430" stop-opacity="0.3168"/>
<stop offset="0.7839" stop-color="#E78A50" stop-opacity="0.2466"/>
<stop offset="0.8476" stop-color="#ECA67B" stop-opacity="0.1739"/>
<stop offset="0.9131" stop-color="#F4C9AE" stop-opacity="0.0991081"/>
<stop offset="0.979" stop-color="#FCF1EA" stop-opacity="0.0240115"/>
<stop offset="1" stop-color="white" stop-opacity="0"/>
</radialGradient>
<radialGradient id="paint10_radial_41_400" cx="0" cy="0" r="1" gradientTransform="matrix(1.32338 0.674238 -0.34187 0.667808 20.1268 11.6857)" gradientUnits="userSpaceOnUse">
<stop offset="0.5618" stop-color="#DC5705" stop-opacity="0.5"/>
<stop offset="0.6088" stop-color="#DD5A0A" stop-opacity="0.4464"/>
<stop offset="0.6636" stop-color="#DF6418" stop-opacity="0.3839"/>
<stop offset="0.7223" stop-color="#E27430" stop-opacity="0.3168"/>
<stop offset="0.7839" stop-color="#E78A50" stop-opacity="0.2466"/>
<stop offset="0.8476" stop-color="#ECA67B" stop-opacity="0.1739"/>
<stop offset="0.9131" stop-color="#F4C9AE" stop-opacity="0.0991081"/>
<stop offset="0.979" stop-color="#FCF1EA" stop-opacity="0.0240115"/>
<stop offset="1" stop-color="white" stop-opacity="0"/>
</radialGradient>
<radialGradient id="paint11_radial_41_400" cx="0" cy="0" r="1" gradientUnits="userSpaceOnUse" gradientTransform="translate(22.8285 3.70972) scale(8.75968 8.73766)">
<stop offset="0.0581216" stop-color="#54A8F2"/>
<stop offset="0.1159" stop-color="#4698E6"/>
<stop offset="0.2312" stop-color="#2F7FD2"/>
<stop offset="0.3512" stop-color="#1F6DC4"/>
<stop offset="0.4779" stop-color="#1562BC"/>
<stop offset="0.622" stop-color="#125FB9"/>
</radialGradient>
<linearGradient id="paint12_linear_41_400" x1="8.36633" y1="16.7732" x2="13.4054" y2="16.7489" gradientUnits="userSpaceOnUse">
<stop offset="0.6257" stop-color="#E0E0E0"/>
<stop offset="0.7871" stop-color="#DEDEDE"/>
<stop offset="0.8524" stop-color="#D7D8D8"/>
<stop offset="0.9002" stop-color="#CBCCCE"/>
<stop offset="0.9396" stop-color="#B9BCBF"/>
<stop offset="0.9734" stop-color="#A3A8AC"/>
<stop offset="1" stop-color="#8B9298"/>
</linearGradient>
<linearGradient id="paint13_linear_41_400" x1="25.0282" y1="24.7688" x2="21.7799" y2="20.926" gradientUnits="userSpaceOnUse">
<stop offset="0.6257" stop-color="#E0E0E0"/>
<stop offset="0.7871" stop-color="#DEDEDE"/>
<stop offset="0.8524" stop-color="#D7D8D8"/>
<stop offset="0.9002" stop-color="#CBCCCE"/>
<stop offset="0.9396" stop-color="#B9BCBF"/>
<stop offset="0.9734" stop-color="#A3A8AC"/>
<stop offset="1" stop-color="#8B9298"/>
</linearGradient>
<radialGradient id="paint14_radial_41_400" cx="0" cy="0" r="1" gradientTransform="matrix(1.67014 0.710963 -0.28124 0.657433 22.1157 7.60248)" gradientUnits="userSpaceOnUse">
<stop offset="0.5618" stop-color="#4BA6F3"/>
<stop offset="0.6184" stop-color="#50A8F3" stop-opacity="0.8709"/>
<stop offset="0.6844" stop-color="#5EAFF4" stop-opacity="0.7204"/>
<stop offset="0.7551" stop-color="#75BBF6" stop-opacity="0.559"/>
<stop offset="0.8291" stop-color="#96CBF8" stop-opacity="0.39"/>
<stop offset="0.9058" stop-color="#C0E0FB" stop-opacity="0.2149"/>
<stop offset="0.9836" stop-color="#F3F9FE" stop-opacity="0.0375082"/>
<stop offset="1" stop-color="white" stop-opacity="0"/>
</radialGradient>
<linearGradient id="paint15_linear_41_400" x1="22.1508" y1="7.44962" x2="20.0517" y2="12.0192" gradientUnits="userSpaceOnUse">
<stop offset="0.6257" stop-color="#E0E0E0"/>
<stop offset="0.7871" stop-color="#DEDEDE"/>
<stop offset="0.8524" stop-color="#D7D8D8"/>
<stop offset="0.9002" stop-color="#CBCCCE"/>
<stop offset="0.9396" stop-color="#B9BCBF"/>
<stop offset="0.9734" stop-color="#A3A8AC"/>
<stop offset="1" stop-color="#8B9298"/>
</linearGradient>
</defs>
</svg>
